<svg width="18" height="18" viewBox="0 0 18 18" fill="none" xmlns="http://www.w3.org/2000/svg">
  <path d="M0 0H18V18H0V0Z" fill="white" fill-opacity="0.01" stroke="none" />
  <path d="M6 14.25H15C15.4142 14.25 15.75 13.9142 15.75 13.5V6H10.875V1.5H6C5.58579 1.5 5.25 1.83579 5.25 2.25V13.5C5.25 13.9142 5.58579 14.25 6 14.25Z" stroke="currentColor" stroke-width="1.5" stroke-linejoin="round"/>
  <path d="M3.75 3.75V3.75C3.33579 3.75 3 4.08579 3 4.5V15.75C3 16.1642 3.33579 16.5 3.75 16.5H12.75C13.1642 16.5 13.5 16.1642 13.5 15.75V15.75" stroke="currentColor" stroke-width="1.5" stroke-linejoin="round"/>
  <path d="M15.75 6L10.875 1.5" stroke="currentColor" stroke-width="1.5" stroke-linecap="round" stroke-linejoin="round"/>
</svg>
