<svg width="18" height="18" viewBox="0 0 18 18" fill="none" xmlns="http://www.w3.org/2000/svg">
<path d="M0 0H18V18H0V0Z" fill="white" fill-opacity="0.01" stroke="none" />
<path fill-rule="evenodd" clip-rule="evenodd" d="M0.75 5.25C0.75 4.96594 0.9105 4.70621 1.16459 4.57916L8.6646 0.82918C8.87572 0.723607 9.12428 0.723607 9.3354 0.82918L13.0854 2.70418L16.8354 4.57916C17.0895 4.70621 17.25 4.96594 17.25 5.25V12.75C17.25 13.0341 17.0895 13.2938 16.8354 13.4208L9.3354 17.1708C9.12428 17.2764 8.87572 17.2764 8.6646 17.1708L1.16459 13.4208C0.9105 13.2938 0.75 13.0341 0.75 12.75V5.25ZM3.17708 5.25L5.5854 6.45416L9 8.16146L14.8229 5.25L12.4146 4.04584L11.5365 3.60677L9.17888 4.78556C9.06627 4.84186 8.93373 4.84186 8.82111 4.78556L6.46353 3.60676L3.17708 5.25ZM15.75 6.46354L9.75 9.46354V15.2865L13.4511 13.4359L13.6118 10.7597C13.6193 10.6341 13.6856 10.5193 13.7907 10.4499L15.75 9.15624V6.46354ZM8.25 15.2865V9.46354L4.9146 7.79584L2.25 6.46354V8.82934L4.70445 10.4499C4.80952 10.5193 4.87579 10.6341 4.88333 10.7597L5.05928 13.6911L8.25 15.2865Z" fill="currentColor" />
</svg>
